<svg xmlns="http://www.w3.org/2000/svg" xmlns:xlink="http://www.w3.org/1999/xlink" width="2000" zoomAndPan="magnify" viewBox="0 0 1500 1499.999933" height="2000" preserveAspectRatio="xMidYMid meet" version="1.0"><defs><clipPath id="f065bab467"><path d="M 48.601562 410 L 1441 410 L 1441 831 L 48.601562 831 Z M 48.601562 410 " clip-rule="nonzero"/></clipPath><clipPath id="1fa6e782ec"><path d="M 60 691 L 1451.101562 691 L 1451.101562 1095 L 60 1095 Z M 60 691 " clip-rule="nonzero"/></clipPath></defs><g clip-path="url(#f065bab467)"><path fill="#ffffff" d="M 152.609375 830.136719 L 48.601562 780.738281 C 117.691406 635.453125 209.320312 581.734375 274.121094 562.246094 C 351.5 539.015625 435.328125 551.046875 510 596.1875 C 547.050781 618.582031 599.242188 647.742188 624.257812 642.5625 C 647.375 637.871094 678.261719 592.90625 699.390625 559.625 C 718.449219 529.601562 790.097656 430.316406 912.675781 412.8125 C 968.464844 404.867188 1054.625 412.8125 1148.410156 495.429688 C 1175.527344 519.324219 1214.621094 546.558594 1247.09375 540.539062 C 1287.683594 532.96875 1317.882812 475.164062 1332.390625 447.355469 C 1335.878906 440.28125 1339.71875 433.402344 1343.90625 426.714844 L 1439.910156 490.277344 L 1440.140625 489.90625 C 1439.191406 491.488281 1436.542969 496.554688 1434.382812 500.640625 C 1413.253906 541.117188 1363.769531 635.941406 1268.023438 653.730469 C 1257.851562 655.644531 1247.59375 656.601562 1237.25 656.609375 C 1183.933594 656.609375 1128.578125 631.535156 1072.183594 581.765625 C 1023.246094 538.582031 975.085938 520.1875 928.824219 526.78125 C 870.097656 535.128906 820.871094 582.886719 796.546875 621.230469 C 771.648438 660.46875 751.640625 686.867188 731.632812 706.816406 C 705.320312 733.125 677.800781 748.957031 647.574219 755.234375 C 587.46875 767.699219 527.5625 741.300781 450.382812 694.78125 C 403.257812 666.253906 353.746094 658.566406 307.28125 672.414062 C 246.371094 690.839844 192.882812 745.332031 152.609375 830.136719 Z M 152.609375 830.136719 " fill-opacity="1" fill-rule="nonzero"/></g><g clip-path="url(#1fa6e782ec)"><path fill="#ffffff" d="M 164.125 1094.980469 L 60.117188 1045.582031 C 129.207031 900.292969 220.835938 846.574219 285.636719 827.085938 C 362.984375 803.855469 446.84375 815.890625 521.515625 861.027344 C 583.320312 898.449219 630.589844 914.425781 665.941406 909.964844 C 687.386719 907.34375 720.636719 896.292969 761.917969 831.203125 C 800.664062 770.144531 849.371094 730.449219 906.660156 713.40625 C 976.4375 692.566406 1057.703125 705.632812 1148.210938 752.242188 C 1272.800781 816.378906 1303.917969 769.511719 1355.476562 691.527344 L 1451.480469 755.089844 C 1413.597656 812.289062 1357.203125 897.441406 1246.574219 897.441406 C 1204.660156 897.441406 1154.945312 885.238281 1095.5 854.609375 C 954.644531 782.09375 896.871094 833.277344 859.160156 892.894531 C 796.03125 992.410156 724.089844 1025.632812 654.167969 1025.632812 C 584.242188 1025.632812 516.9375 992.699219 461.984375 959.421875 C 414.773438 930.921875 365.261719 923.234375 318.796875 937.199219 C 257.882812 955.679688 204.398438 1010.171875 164.125 1094.980469 Z M 164.125 1094.980469 " fill-opacity="1" fill-rule="nonzero"/></g></svg>