<svg xmlns="http://www.w3.org/2000/svg" xmlns:xlink="http://www.w3.org/1999/xlink" width="2000" zoomAndPan="magnify" viewBox="0 0 1500 1499.999933" height="2000" preserveAspectRatio="xMidYMid meet" version="1.0"><path fill="#ffffff" d="M 1108.597656 490.679688 C 1106.515625 527.207031 1074.597656 553.976562 1037.71875 542.464844 C 1019.179688 536.6875 1002.921875 527.324219 989.414062 513.566406 C 971.257812 495.058594 949.6875 480.71875 929.996094 464.078125 C 908.941406 446.253906 891.21875 425.730469 874.113281 404.425781 C 843.710938 366.597656 812.296875 329.652344 780.363281 293.105469 C 754.960938 264.023438 728.59375 235.574219 709.289062 201.675781 C 699.195312 183.953125 696.84375 163.796875 691.296875 144.707031 C 688.214844 134.128906 692.78125 123.4375 699.042969 114.675781 C 716.351562 90.4375 737.789062 72.964844 770.96875 75.179688 C 792.773438 73.28125 812.363281 82.425781 831.003906 93.703125 C 872.730469 118.957031 906.410156 153.1875 937.824219 190.046875 C 965.644531 222.679688 993.859375 255.027344 1016.582031 291.476562 C 1046.863281 340.0625 1076.699219 388.886719 1096.734375 443.105469 C 1102.53125 458.832031 1109.59375 473.140625 1108.597656 490.679688 Z M 847.660156 722.78125 C 831.085938 716.433594 813.730469 712.570312 798.003906 703.507812 C 757.261719 680.023438 714.933594 659.648438 670.625 643.675781 C 639.960938 632.617188 608.292969 625.101562 576.480469 618.273438 C 539.582031 610.363281 502.738281 607.945312 465.542969 617.824219 C 404.875 633.929688 390.316406 691.347656 402.675781 738.140625 C 408.191406 759.042969 426.699219 766.207031 444.554688 773.234375 C 478.550781 786.628906 514.929688 790.894531 550.128906 799.554688 C 596.402344 810.929688 642.441406 823.390625 689.132812 833.253906 C 722.914062 840.398438 756.726562 844.863281 788.992188 846.277344 C 806.734375 845.363281 822.691406 845.164062 836.933594 851.941406 C 855.523438 860.785156 891.25 849.777344 905.394531 830.304688 C 912.554688 820.441406 917.886719 809.550781 914.957031 796.441406 C 906.578125 758.992188 882.472656 736.125 847.660156 722.78125 Z M 861.800781 1130.851562 C 861.269531 1125.238281 855.953125 1122.207031 853.824219 1117.292969 C 847.242188 1102.21875 831.585938 1095.789062 817.144531 1102.964844 C 802.570312 1110.210938 788.160156 1118.023438 774.402344 1126.71875 C 709.253906 1167.914062 656.351562 1222.816406 605.878906 1280.082031 C 585.859375 1302.804688 568.550781 1327.757812 562.6875 1358.921875 C 558.039062 1383.574219 567.21875 1404.011719 589.289062 1415.640625 C 602.78125 1422.734375 617.40625 1423.867188 631.933594 1425.152344 C 651.253906 1426.867188 667.226562 1419.921875 680.304688 1405.179688 C 691.179688 1392.917969 700.277344 1379.425781 709.636719 1366.132812 C 726.546875 1342.164062 749.5 1323.277344 766.339844 1299.589844 C 794.421875 1260.09375 820.992188 1219.515625 849.191406 1180.054688 C 856.6875 1169.5625 864.332031 1157.835938 861.867188 1142.3125 C 861.886719 1139.179688 862.203125 1134.980469 861.800781 1130.851562 Z M 917.671875 576.628906 C 883.9375 561.972656 855.886719 537.21875 821.472656 523.628906 C 802.417969 516.097656 784.277344 506.285156 762.609375 508.71875 C 746.082031 506.953125 730.691406 509.617188 720.765625 524.910156 C 709.722656 541.898438 712.554688 558.65625 729.625 575.664062 C 767.121094 612.992188 813.046875 635.414062 863.269531 649.90625 C 871.597656 652.304688 880.324219 653.503906 888.503906 656.320312 C 899.179688 659.984375 909.609375 658.515625 918.585938 653.46875 C 938.792969 642.109375 940.558594 625.554688 935.394531 601.917969 C 933.144531 591.671875 928.3125 581.261719 917.671875 576.628906 Z M 700.507812 1076.449219 C 727.210938 1076.449219 750.082031 1071.117188 776.015625 1058.691406 C 790.390625 1051.8125 805.015625 1045.816406 820.441406 1041.453125 C 847.542969 1033.753906 860.484375 1003.605469 848.042969 978.96875 C 847.058594 977.019531 846.359375 974.789062 846.144531 972.640625 C 844.210938 954.117188 831.769531 944.488281 814.410156 949.371094 C 783.03125 958.199219 750.679688 960.445312 718.617188 964.863281 C 694.730469 968.160156 671.460938 973.773438 654.617188 993.09375 C 646.289062 1002.65625 639.226562 1013.484375 641.058594 1026.792969 C 644.773438 1053.894531 672.34375 1076.449219 700.507812 1076.449219 Z M 700.507812 1076.449219 " fill-opacity="1" fill-rule="nonzero"/></svg>